<?xml version="1.0" encoding="iso-8859-1"?>
<!-- Generator: Adobe Illustrator 19.0.0, SVG Export Plug-In . SVG Version: 6.00 Build 0)  -->
<svg version="1.1" id="Layer_1" xmlns="http://www.w3.org/2000/svg" xmlns:xlink="http://www.w3.org/1999/xlink" x="0px" y="0px"
	 viewBox="120 120 500 500"  height="100" width="100" style="enable-background:new 0 0 1 1;" xml:space="preserve">
<!-- 
<svg version="1.1" id="Layer_1" xmlns="http://www.w3.org/2000/svg" xmlns:xlink="http://www.w3.org/1999/xlink" width="50px" height="50px"
     viewBox="0 0 720 720" style="enable-background:new 0 0 1 1;" xml:space="preserve">  -->

<!-- <svg version="1.1" id="Layer_1" xmlns="http://www.w3.org/2000/svg" xmlns:xlink="http://www.w3.org/1999/xlink"
     x="0px" y="0px" viewBox="0 0 900 900" height="125" width="125" style="enable-background:new 0 0 1 1;"
     xml:space="preserve"> -->

<g id="XMLID_20_">
	<linearGradient id="XMLID_17_" gradientUnits="userSpaceOnUse" x1="438.7973" y1="227.129" x2="438.7973" y2="523.6856">
		<stop  offset="1.076729e-007" style="stop-color:#F15F2B"/>
		<stop  offset="0.96" style="stop-color:#022169"/>
		<stop  offset="1" style="stop-color:#B9D9EB"/>
	</linearGradient>
	<path id="XMLID_22_" style="fill:url(#XMLID_17_);" d="M476.995,360.182c0.871,0,1.685,0.227,2.386,0.643l32.301-32.301
		c3.711-3.73,5.15-9.145,3.806-14.219c-2.916-11.02-16.662-14.75-24.747-6.703l-44.552,44.552c0.454,0.738,0.719,1.609,0.719,2.518
		c0,2.632-2.14,4.771-4.771,4.771c-0.928,0-1.78-0.265-2.518-0.719l-10.357,10.357l-1.59-1.591l10.376-10.376
		c-0.435-0.719-0.682-1.552-0.682-2.443c0-2.632,2.14-4.771,4.771-4.771c0.909,0,1.723,0.246,2.442,0.682l65.966-65.947
		c3.711-3.73,5.169-9.145,3.825-14.238c-2.935-11.001-16.681-14.731-24.747-6.703l-36.94,36.921
		c0.416,0.701,0.663,1.534,0.663,2.424c0,2.632-2.14,4.771-4.771,4.771c-0.89,0-1.723-0.246-2.424-0.662l-39.402,39.401l-1.591-1.59
		l39.383-39.383c-0.473-0.738-0.738-1.59-0.738-2.537c0-2.632,2.14-4.771,4.771-4.771c0.947,0,1.799,0.265,2.537,0.738
		l48.736-48.736c3.711-3.73,5.169-9.145,3.825-14.219c-2.916-11.02-16.662-14.75-24.747-6.703l-19.748,19.748
		c0.379,0.682,0.587,1.477,0.587,2.31c0,2.632-2.121,4.771-4.752,4.771c-0.852,0-1.647-0.227-2.329-0.606l-51.576,51.576
		c0.379,0.681,0.606,1.477,0.606,2.329c0,2.632-2.14,4.752-4.771,4.752c-0.833,0-1.628-0.208-2.31-0.587l-10.395,10.376l-1.59-1.59
		l10.319-10.319c-0.511-0.757-0.795-1.647-0.795-2.632c0-2.651,2.14-4.771,4.771-4.771c0.966,0,1.874,0.284,2.632,0.795
		l51.462-51.462c-0.511-0.757-0.795-1.666-0.795-2.632c0-2.632,2.121-4.771,4.771-4.771c0.985,0,1.874,0.284,2.632,0.795
		l25.277-25.277c3.749-3.749,5.207-9.183,3.844-14.295c-2.954-11.001-16.7-14.693-24.766-6.646L361.612,301.6l13.448,13.448
		l81.31,81.294c0.436,0.454,0.814,0.928,1.193,1.401l10.501,10.528l4.406,4.415l0.189-0.19l27.284-27.038
		c3.749-3.749,5.207-9.202,3.825-14.295c-2.689-10.054-14.409-14.011-22.55-8.426c0.341,0.644,0.549,1.401,0.549,2.197
		c0,2.651-2.14,4.771-4.771,4.771c-0.928,0-1.78-0.265-2.518-0.719l-22.664,22.626l-1.609-1.609l22.664-22.664
		c-0.417-0.701-0.644-1.515-0.644-2.404C472.224,362.302,474.364,360.182,476.995,360.182z"/>
	<linearGradient id="XMLID_18_" gradientUnits="userSpaceOnUse" x1="465.0193" y1="178.4567" x2="465.0193" y2="531.2022">
		<stop  offset="0" style="stop-color:#CF4520"/>
		<stop  offset="0.33" style="stop-color:#E2231A"/>
		<stop  offset="0.66" style="stop-color:#022169"/>
		<stop  offset="1" style="stop-color:#B9D9EB"/>
	</linearGradient>
	<path id="XMLID_621_" style="fill:url(#XMLID_18_);" d="M457.639,397.856l14.825,14.825l-4.4-4.411l-10.49-10.511
		C457.602,397.792,457.623,397.824,457.639,397.856z"/>
	<linearGradient id="XMLID_19_" gradientUnits="userSpaceOnUse" x1="465.0193" y1="178.2025" x2="465.0193" y2="531.2081">
		<stop  offset="0" style="stop-color:#CF4520"/>
		<stop  offset="0.33" style="stop-color:#E2231A"/>
		<stop  offset="0.66" style="stop-color:#022169"/>
		<stop  offset="1" style="stop-color:#B9D9EB"/>
	</linearGradient>
	<path id="XMLID_620_" style="fill:url(#XMLID_19_);" d="M457.639,397.856l14.825,14.825l-4.4-4.411l-10.49-10.511
		C457.602,397.792,457.623,397.824,457.639,397.856z"/>
	<linearGradient id="XMLID_21_" gradientUnits="userSpaceOnUse" x1="462.8138" y1="178.5039" x2="462.8138" y2="531.1839">
		<stop  offset="0" style="stop-color:#CF4520"/>
		<stop  offset="0.33" style="stop-color:#E2231A"/>
		<stop  offset="0.66" style="stop-color:#022169"/>
		<stop  offset="1" style="stop-color:#B9D9EB"/>
	</linearGradient>
	<path id="XMLID_624_" style="fill:url(#XMLID_21_);" d="M457.574,397.76l10.49,10.511l-10.501-10.528
		C457.569,397.748,457.57,397.754,457.574,397.76z"/>
	<linearGradient id="XMLID_23_" gradientUnits="userSpaceOnUse" x1="462.8138" y1="178.4567" x2="462.8138" y2="531.2022">
		<stop  offset="0" style="stop-color:#CF4520"/>
		<stop  offset="0.33" style="stop-color:#E2231A"/>
		<stop  offset="0.66" style="stop-color:#022169"/>
		<stop  offset="1" style="stop-color:#B9D9EB"/>
	</linearGradient>
	<path id="XMLID_623_" style="fill:url(#XMLID_23_);" d="M457.574,397.76l10.49,10.511l-10.501-10.528
		C457.569,397.748,457.57,397.754,457.574,397.76z"/>
	<linearGradient id="XMLID_24_" gradientUnits="userSpaceOnUse" x1="462.8138" y1="178.2025" x2="462.8138" y2="531.2081">
		<stop  offset="0" style="stop-color:#CF4520"/>
		<stop  offset="0.33" style="stop-color:#E2231A"/>
		<stop  offset="0.66" style="stop-color:#022169"/>
		<stop  offset="1" style="stop-color:#B9D9EB"/>
	</linearGradient>
	<path id="XMLID_622_" style="fill:url(#XMLID_24_);" d="M457.574,397.76l10.49,10.511l-10.501-10.528
		C457.569,397.748,457.57,397.754,457.574,397.76z"/>
	<linearGradient id="XMLID_25_" gradientUnits="userSpaceOnUse" x1="338.2408" y1="234.7026" x2="338.2408" y2="518.723">
		<stop  offset="2.153458e-007" style="stop-color:#FF000D"/>
		<stop  offset="0.33" style="stop-color:#E2231A"/>
		<stop  offset="0.66" style="stop-color:#022169"/>
		<stop  offset="1" style="stop-color:#B9D9EB"/>
	</linearGradient>
	<path id="XMLID_642_" style="fill:url(#XMLID_25_);" d="M456.295,417.056c-5.699,5.68-14.92,5.642-20.581-0.076l-30.332-30.332
		c0.417-0.701,0.625-1.496,0.625-2.367c0-2.594-2.102-4.677-4.696-4.677c-0.852,0-1.666,0.227-2.348,0.625l-37.129-37.148
		c0.36-0.663,0.587-1.458,0.587-2.31c0-2.594-2.102-4.677-4.696-4.677c-0.852,0-1.628,0.227-2.291,0.587l-14.503-14.503l8.009-8.028
		l95.105,95.124c0.473,0.454,1.023,0.701,1.685,0.701c0.644,0,1.212-0.227,1.685-0.682c0.966-0.985,1.003-2.594,0.057-3.541
		l-95.067-95.067l9.145-9.145L256.882,196.891c-61.157,61.157-72.29,149.616-17.362,204.544l11.076,11.076l111.067,110.612
		l110.801-110.442l-14.825-14.825C461.975,403.612,461.52,411.83,456.295,417.056z M296.852,424.591
		c-3.067,10.811-16.681,14.238-24.519,6.191l-20.013-19.994l8.009-8.028l20.392,20.392c0.511,0.511,1.06,0.757,1.723,0.757
		c0.303,0,1.912-0.095,2.405-1.799c0.265-0.89-0.019-1.837-0.757-2.537l-20.297-20.278l9.164-9.145l1.609,1.609
		c-0.379,0.682-0.606,1.496-0.606,2.348c0,2.594,2.102,4.715,4.696,4.715c0.871,0,1.666-0.227,2.367-0.625l11.966,11.966
		C296.833,413.893,298.31,419.441,296.852,424.591z M344.319,427.886c-3.181,10.773-16.813,14.068-24.576,5.945l-37.148-37.148
		c0.492-0.739,0.776-1.629,0.776-2.575c0-2.594-2.121-4.696-4.715-4.696c-0.947,0-1.818,0.265-2.575,0.757l-1.591-1.59l8.028-8.009
		l45.688,45.706c0.511,0.53,1.06,0.757,1.742,0.757c0.454,0,1.912-0.132,2.405-1.761c0.265-0.89,0-1.837-0.663-2.48l-45.707-45.688
		l9.164-9.145l9.524,9.524c-0.454,0.701-0.701,1.515-0.701,2.424c0,2.594,2.121,4.696,4.715,4.696c0.89,0,1.723-0.246,2.443-0.662
		l29.272,29.272C344.338,416.98,345.853,422.641,344.319,427.886z M389.117,428.132c-3.067,10.793-16.662,14.238-24.501,6.191
		l-51.936-51.936c0.436-0.738,0.701-1.572,0.701-2.48c0-2.594-2.102-4.715-4.696-4.715c-0.909,0-1.761,0.265-2.48,0.72l-9.505-9.505
		l8.009-8.028l68.295,68.313c0.492,0.492,1.06,0.739,1.704,0.739c0.322,0,1.95-0.095,2.424-1.799
		c0.246-0.89-0.019-1.818-0.757-2.537l-68.2-68.181l9.145-9.164l0.019,0.019l36.259,36.24c-0.379,0.681-0.587,1.458-0.587,2.272
		c0,2.613,2.121,4.715,4.715,4.715c0.833,0,1.609-0.208,2.272-0.587l25.277,25.277C389.098,417.434,390.575,422.963,389.117,428.132
		z M423.179,428.094c-5.491,5.453-14.39,5.415-19.843-0.076l-41.446-41.503c0.322-0.663,0.53-1.42,0.53-2.234
		c0-2.594-2.102-4.677-4.696-4.677c-0.814,0-1.553,0.208-2.215,0.549l-36.259-36.297v-0.019l8.009-8.009l84.408,84.465
		c0.36,0.379,0.814,0.568,1.325,0.568c0.511,0,0.947-0.19,1.288-0.549c0.795-0.757,0.814-2.045,0.076-2.802l-84.351-84.427
		l9.145-9.126l14.484,14.485c-0.398,0.681-0.625,1.477-0.625,2.329c0,2.613,2.121,4.715,4.715,4.715
		c0.852,0,1.647-0.227,2.329-0.625l37.129,37.149c-0.379,0.681-0.568,1.458-0.568,2.272c0,2.613,2.102,4.715,4.696,4.715
		c0.814,0,1.609-0.208,2.272-0.587l19.672,19.71C428.727,413.647,428.689,422.603,423.179,428.094z"/>
</g>

</svg>
