<svg xmlns="http://www.w3.org/2000/svg" xmlns:xlink="http://www.w3.org/1999/xlink" style="height:unset;" data-version="6.4" viewBox="0 0 1000 1000"><jvs:data xmlns="http://www.w3.org/1999/xhtml" xmlns:jvs="http://www.janvas.com/jvs" data-type="jvs-doc-preferences">{"unitKey":"PIXEL","unitValue":1,"drawingScale":1,"findAllElementAtPoint":1,"optimizeZoom":false,"mantainAspectRatio":true,"interactionLabelVisibility":false,"svgAlignmentPreserveAspectRatio":"unset","snap":{"distance":10,"offsetDistance":50,"snapToPoints":true,"snapToContour":true,"snapToPerpendicular":true,"snapToTangent":true,"snapToIntersection":true,"snapToCenter":true,"snapToGrid":true,"snapToOffset":true,"snapToAngles":true,"snapAngleList":[45],"useSmartPoints":true,"useSmartGuides":true},"fixedDecimals":0,"rulersVisibility":true,"gridVisibility":false,"elementOriginVisibility":false,"gridStep":1,"origin":{"x":0,"y":0},"selectMainNodes":true,"scaleStrokeAndEffects":true,"scaleText":true,"moveStep":1,"rotateStep":45}</jvs:data><defs>
            </defs><svg class="page showed" xmlns="http://www.w3.org/2000/svg" xmlns:xlink="http://www.w3.org/1999/xlink" height="1000" width="1000" data-page-width="1000" data-page-height="1000" style="position: absolute;left: 0; top:0; right: 0; bottom:0; " viewBox="0 0 1000 1000" y="0">
        <g class="content">
            <g class="layers">
                <g class="layer" data-layer-name="first layer" data-layer-color="#007fff" active="">
                <path d="M 925.67 426.36 L 756.67 595.36 L 761.06 599.76 L 835.8599999999999 525.34 C 857.9956089710281 503.1966923261002 895.8011982949627 513.3196246460707 903.9100607788607 543.5612781801698 C 907.6733970716349 557.5964788663787 903.6631725147641 572.5732551439397 893.3899999999999 582.85 L 818.3899999999999 657.1800000000001 L 513.44 962.34 L 208.34 657.22 L 513.47 352.09 L 789.09 76.48 C 811.2294585358535 54.340541890803834 849.0332865683376 64.47004745831386 857.1368904489962 94.71311003099332 C 860.8977860293031 108.74896395964 856.8849580869594 123.7250417332474 846.61 134 L 571 409.64 L 575.37 414.01 L 835.6 153.77 C 857.8028114584802 131.68619680989747 895.5859868521582 141.91906825063427 903.6097156977228 172.18916860416553 C 907.3135349144575 186.1620958478215 903.3240651655017 201.0509996610273 893.13 211.3 L 632.87 471.55 L 637.22 475.92 L 865 248.21 C 887.2028114584801 226.12619680989746 924.9859868521581 236.35906825063427 933.0097156977228 266.62916860416556 C 936.7135349144575 280.60209584782154 932.7240651655017 295.4909996610273 922.53 305.74 L 694.73 533.49 L 699.1 537.86 L 868.1 368.86 C 890.3028114584802 346.77619680989744 928.0859868521559 357.0090682506365 936.1097156977205 387.2791686041678 C 939.8135349144552 401.2520958478238 935.8240651655017 416.14099966102725 925.63 426.39 Z" fill="rgb(207, 69, 32)" transform="matrix(1 0 0 1 -8.58153 -13.4412)" class=""/><rect x="-215.50002617135573" y="-215.00001068717484" width="431.00005234271146" height="430.00002137434967" stroke-width="37.20707083956707" stroke="none" fill="#E2231A" transform="matrix(0.707107 0.707107 -0.707107 0.707107 504.354 643.41)" class="" fill-opacity="1"/><path d="M 732.12 686.1 C 747.8596669176083 702.0577692331383 773.5772793938183 702.1654306144711 789.45 686.34 C 805.397332765036 670.443123219844 805.5045850624035 644.6489429778217 789.69 628.62 L 513.32 352.24 L 455.7900000000001 409.77 Z" fill="rgb(2, 33, 105)" transform="matrix(1 0 0 1 -21.4014 -25.047)" class=""/><path d="M 633.4351196289062 708.8751220703125 C 648.6109619140625 724.2631225585938 673.3967895507812 724.366943359375 688.7008056640625 709.1066284179688 C 704.0791015625 693.77490234375 704.17822265625 668.8861083984375 688.9224853515625 653.4321899414062 L 435.11859130859375 399.434326171875 L 379.6697692871094 454.9255676269531 L 633.4351196289062 708.8751220703125 Z " fill="rgb(2, 33, 105)" transform="matrix(1 0 0 1 -12.9464 -17.0668)" class="" stroke-width="0.9641928210925882"/><path d="M 562.91 764.35 C 584.73639627415 786.8059040273102 622.6871231444827 777.2130769947609 631.2213083600036 747.0829113346258 C 635.2886364157928 732.7231025163024 631.1660259645947 717.2890266290194 620.48 706.87 L 389.59 476 L 332.06 533.5 Z" fill="rgb(2, 33, 105)" transform="matrix(1 0 0 1 -50.4079 -54.9538)" class=""/><path d="M 442.2999267578125 767.460205078125 C 463.90716552734375 790.1271362304688 501.9493103027344 780.9033813476562 510.7758483886719 750.857421875 C 515.06103515625 736.2704467773438 510.8544616699219 720.5114135742188 499.8699645996094 710.0001220703125 L 327.719970703125 537.8401489257812 L 270.1999816894531 595.3600463867188 L 442.2999267578125 767.460205078125 Z " fill="rgb(2, 33, 105)" transform="matrix(1 0 0 1 -54.8716 -59.4183)" class="" stroke-width="1"/><path d="M 264.15 713 C 285.97639627415003 735.4559040273102 323.9271231444837 725.8630769947619 332.4613083600046 695.7329113346268 C 336.5286364157937 681.3731025163034 332.4060259645947 665.9390266290194 321.71999999999997 655.52 L 265.86 599.7 L 208.33 657.23 Z" fill="rgb(2, 33, 105)" transform="matrix(1 0 0 1 -8.89522 -13.4412)" class=""/><path d="M 513.32 352.24 L 225.64 64.57 C 57.53 232.67 26.93 475.82 177.9 626.79 L 208.33 657.2199999999999 Z" fill="rgb(185, 217, 235)" transform="matrix(1 0 0 1 -8.89522 -13.4412)" class=""/><rect x="-0.6278411627118317" y="-0.5" width="1.2556823254236633" height="1" stroke-width="32.18324000568629" stroke="none" fill="#FFFFFF" transform="matrix(1 0 0 1 -739.628 239.452)" class=""/></g>
            </g>
        </g>
    </svg></svg>
